<?xml version="1.0" encoding="UTF-8" standalone="no"?>
<svg
   xmlns:dc="http://purl.org/dc/elements/1.1/"
   xmlns:cc="http://creativecommons.org/ns#"
   xmlns:rdf="http://www.w3.org/1999/02/22-rdf-syntax-ns#"
   xmlns:svg="http://www.w3.org/2000/svg"
   xmlns="http://www.w3.org/2000/svg"
   viewBox="0 0 464 154.66667"
   height="154.66667"
   width="464"
   xml:space="preserve"
   id="svg2"
   version="1.1"><metadata
     id="metadata8"><rdf:RDF><cc:Work
         rdf:about=""><dc:format>image/svg+xml</dc:format><dc:type
           rdf:resource="http://purl.org/dc/dcmitype/StillImage" /></cc:Work></rdf:RDF></metadata><defs
     id="defs6"><clipPath
       id="clipPath18"
       clipPathUnits="userSpaceOnUse"><path
         id="path16"
         d="M 0,116 H 348 V 0 H 0 Z" /></clipPath></defs><g
     transform="matrix(1.3333333,0,0,-1.3333333,0,154.66667)"
     id="g10"><g
       id="g12"><g
         clip-path="url(#clipPath18)"
         id="g14"><g
           transform="translate(64.0601,30.6602)"
           id="g20"><path
             id="path22"
             style="fill:#ffffff;fill-opacity:1;fill-rule:nonzero;stroke:none"
             d="m 0,0 -1.58,-12.68 c -0.19,-1.5 -1.04,-2.26 -2.55,-2.28 l -16.08,-0.19 c -1.45,-0.01 -2.25,0.7 -2.41,2.14 l -1.5,13.76 c -0.07,0.689 -0.65,1.229 -1.35,1.25 l -10.26,0.34 c -1.07,0.04 -1.95,0.84 -2.1,1.889 -0.59,4.201 -1.4,8.351 -2.41,12.441 -1.49,6.019 -2.33,11.81 -3.72,17.81 -0.8,3.46 -1.6,7.22 -2.39,11.27 -0.75,3.85 -1.61,7.6 -2.57,11.27 -0.24,0.92 0.42,1.84 1.37,1.89 5.43,0.31 10.51,0.29 15.22,-0.08 0.57,-0.04 1.12,0.22 1.44,0.69 5.52,7.91 15.27,9.2 24.34,8.22 6.37,-0.69 11.18,-3.4 14.45,-8.14 0.23,-0.34 0.56,-0.52 0.97,-0.54 l 14.84,-0.83 c 1.15,-0.07 1.6,-0.66 1.35,-1.78 L 13.07,2.05 C 12.89,1.25 12.13,0.71 11.31,0.81 7.92,1.24 4.43,1.25 0.84,0.83 0.35,0.77 0.07,0.49 0,0 M 4.1,56.333 C 4.09,60.1 -2.81,63.13 -11.314,63.1 -19.81,63.07 -26.69,59.99 -26.68,56.226 -26.67,52.46 -19.77,49.43 -11.266,49.46 -2.77,49.49 4.11,52.57 4.1,56.333 M 4.45,42.72 C 3.41,31.09 2.05,18.89 0.36,6.13 0.24,5.21 0.95,4.399 1.88,4.38 l 6.6,-0.09 c 0.85,-0.01 1.36,0.399 1.55,1.23 3.57,16.03 7.02,31.45 10.36,46.27 0.23,0.99 0.31,1.95 0.24,2.86 -0.03,0.38 -0.35,0.68 -0.73,0.68 l -9.4,0.01 C 9.49,55.34 8.57,54.74 8.16,53.8 5.97,48.76 1.3,46.73 -3.83,45.43 c -6.12,-1.55 -12.21,-1.27 -18.26,0.83 -4.54,1.58 -7.55,4.4 -9.51,8.55 -0.19,0.4 -0.51,0.6 -0.95,0.6 l -11.26,-0.08 c -0.28,0 -0.5,-0.26 -0.45,-0.54 1.27,-7.01 2.74,-14.33 4.41,-21.96 0.8,-3.67 1.61,-7.33 2.42,-11 0.9,-4.07 1.83,-8.99 2.8,-14.78 0.16,-0.93 0.96,-1.62 1.9,-1.63 l 6.49,-0.08 c 1.01,-0.01 1.46,0.48 1.36,1.49 -0.58,5.85 -1.23,11.44 -1.95,16.77 -0.34,2.53 -0.47,4.92 -0.38,7.18 0.01,0.31 0.16,0.53 0.45,0.64 l 30.4,11.91 c 0.41,0.16 0.85,-0.17 0.81,-0.61 M 0.08,36.1 c 0.05,0.38 -0.34,0.68 -0.69,0.52 l -20.66,-9.16 c -0.2,-0.09 -0.31,-0.3 -0.29,-0.51 l 3.83,-36.83 c 0.03,-0.261 0.25,-0.46 0.51,-0.45 l 10.8,0.22 c 0.25,0.009 0.45,0.19 0.49,0.44 z" /></g><g
           transform="translate(156.8994,48.3877)"
           id="g24"><path
             id="path26"
             style="fill:#ffffff;fill-opacity:1;fill-rule:nonzero;stroke:none"
             d="m 0,0 c 0,-0.317 -0.25,-0.567 -0.567,-0.573 l -16.88,-0.088 c -0.312,-0.007 -0.573,0.254 -0.573,0.566 l -0.199,38 c 0,0.317 0.25,0.567 0.567,0.573 l 16.88,0.088 c 0.313,0.006 0.573,-0.253 0.573,-0.567 z" /></g><g
           transform="translate(165.25,80.8799)"
           id="g28"><path
             id="path30"
             style="fill:#ffffff;fill-opacity:1;fill-rule:nonzero;stroke:none"
             d="m 0,0 v 5.3 c 0,0.38 0.31,0.69 0.69,0.69 l 46.34,0.03 c 0.39,0 0.7,-0.31 0.69,-0.7 l -0.04,-5.45 c 0,-0.38 -0.3,-0.68 -0.68,-0.68 L 32.11,-0.88 c -0.38,0 -0.69,-0.31 -0.69,-0.69 l 0.08,-30.89 c 0,-0.38 -0.32,-0.7 -0.7,-0.689 l -13.82,0.189 c -0.38,0.01 -0.68,0.311 -0.68,0.69 l 0.13,30.72 c 0,0.37 -0.31,0.68 -0.68,0.69 L 0.68,-0.69 C 0.3,-0.68 0,-0.38 0,0" /></g><g
           transform="translate(258.0898,67.2202)"
           id="g32"><path
             id="path34"
             style="fill:#ffffff;fill-opacity:1;fill-rule:nonzero;stroke:none"
             d="m 0,0 c 4.21,-1.39 7.851,-4.21 8.641,-8.72 1.38,-7.79 -8.351,-11.321 -14.231,-11.21 -3.12,0.059 -6.204,-0.031 -9.389,-0.003 -7.006,0.062 -13.96,-0.018 -20.851,0.453 -0.33,0.029 -0.49,0.2 -0.49,0.529 l -0.01,36.671 c 0,0.78 0.62,1.43 1.4,1.47 4.031,0.23 7.75,0.31 11.17,0.24 7,-0.14 13.84,-0.35 20.531,-0.64 C -0.58,18.68 1.8,17.77 3.91,16.06 8.13,12.65 7.78,6.05 3.53,2.85 2.391,1.98 1.09,1.46 -0.1,0.68 -0.53,0.39 -0.5,0.17 0,0 M -24.359,13.91 -24.3,3.05 c 0,-0.4 0.33,-0.73 0.74,-0.73 l 14.17,0.07 c 3.63,0.02 6.56,2.76 6.54,6.13 v 0.16 c -0.02,3.36 -2.97,6.07 -6.6,6.05 l -14.17,-0.07 c -0.41,0 -0.739,-0.34 -0.739,-0.75 m 0.069,-16.62 -0.08,-11.92 c 0,-0.39 0.31,-0.71 0.7,-0.71 l 15.01,-0.111 c 4.221,-0.029 7.66,2.87 7.69,6.481 v 0.28 c 0.031,3.6 -3.37,6.55 -7.59,6.58 L -23.57,-2 c -0.4,0 -0.72,-0.32 -0.72,-0.71" /></g><g
           transform="translate(283.04,65.0801)"
           id="g36"><path
             id="path38"
             style="fill:#ffffff;fill-opacity:1;fill-rule:nonzero;stroke:none"
             d="m 0,0 c 0.42,-2.48 1.71,-5.47 3.62,-7.17 4.359,-3.87 9.3,-6.11 14.82,-6.72 6.55,-0.73 13.75,-0.26 21.58,1.41 0.959,0.209 1.47,-0.18 1.52,-1.16 l 0.12,-2.54 c 0.05,-0.96 -0.39,-1.53 -1.34,-1.7 -6.61,-1.19 -13.88,-1.59 -21.81,-1.2 -11.91,0.59 -28.98,6.87 -27.74,21.88 0.95,11.41 14.44,16.56 23.9,17.87 2.83,0.39 5.74,0.7 8.71,0.91 4.27,0.31 9.75,-0.1 16.45,-1.21 1.899,-0.32 2.82,-1.44 2.76,-3.37 0,-0.18 0.01,-0.36 0.04,-0.54 0.27,-1.83 -0.48,-2.49 -2.26,-2 -5.79,1.62 -12.42,2.16 -19.891,1.61 C 15.95,15.74 11.65,14.47 7.58,12.24 3.75,10.16 -0.82,4.83 0,0" /></g></g></g></g></svg>