<?xml version="1.0" encoding="UTF-8" standalone="no"?>
<svg
   xmlns:dc="http://purl.org/dc/elements/1.1/"
   xmlns:cc="http://creativecommons.org/ns#"
   xmlns:rdf="http://www.w3.org/1999/02/22-rdf-syntax-ns#"
   xmlns:svg="http://www.w3.org/2000/svg"
   xmlns="http://www.w3.org/2000/svg"
   viewBox="0 0 1697.3333 621.33331"
   height="621.33331"
   width="1697.3333"
   xml:space="preserve"
   id="svg2"
   version="1.1"><metadata
     id="metadata8"><rdf:RDF><cc:Work
         rdf:about=""><dc:format>image/svg+xml</dc:format><dc:type
           rdf:resource="http://purl.org/dc/dcmitype/StillImage" /></cc:Work></rdf:RDF></metadata><defs
     id="defs6"><clipPath
       id="clipPath18"
       clipPathUnits="userSpaceOnUse"><path
         id="path16"
         d="M 0,466 H 1273 V 0 H 0 Z" /></clipPath></defs><g
     transform="matrix(1.3333333,0,0,-1.3333333,0,621.33333)"
     id="g10"><g
       id="g12"><g
         clip-path="url(#clipPath18)"
         id="g14"><g
           transform="translate(1200.9502,249.5098)"
           id="g20"><path
             id="path22"
             style="fill:#ffffff;fill-opacity:1;fill-rule:nonzero;stroke:none"
             d="m 0,0 c -0.011,-0.2 0.04,-0.38 0.149,-0.54 21.111,-30.5 42.231,-60.989 63.34,-91.47 0.221,-0.32 -0.01,-0.75 -0.389,-0.75 l -69.74,-0.01 c -0.36,0 -0.711,0.18 -0.921,0.48 l -40.989,57.4 c -0.19,0.27 -0.56,0.34 -0.84,0.17 -56.291,-34.219 -118.75,-59.49 -182.45,-77.719 -54.1,-15.471 -109.32,-26.521 -165.65,-33.13 -26.97,-3.171 -49.13,-5.191 -66.47,-6.061 -11.24,-0.57 -22.23,-1.26 -33.34,-1.649 -70.49,-2.491 -141.08,0.809 -211.78,9.92 -10.75,1.38 -21.79,2.899 -33.12,4.559 -4.94,0.72 -9.84,1.55 -14.69,2.481 -0.15,0.029 -0.17,0.09 -0.06,0.189 0.05,0.05 0.14,0.07 0.25,0.061 37.3,-4.04 74.89,-5.971 112.56,-6.061 77.43,-0.17 155.05,7.481 232.85,22.95 63.57,12.64 124.46,30.08 182.649,52.31 37.241,14.23 72.441,30.5 105.601,48.83 21.95,12.13 42.26,25.25 60.939,39.34 18.701,14.11 36.531,30.42 50.321,49.27 7.05,9.63 11.96,19.3 14.73,29.02 13.539,47.37 -38.33,68.49 -73.29,76.75 -45.421,10.74 -93.591,12.29 -140.66,11.57 -27.79,-0.42 -59.49,-2.22 -95.11,-5.4 -45.37,-4.05 -91.73,-9.72 -139.09,-17 -2.13,-0.33 -4.38,-0.58 -6.75,-0.77 -0.04,-0.01 -0.071,0.01 -0.09,0.04 -0.03,0.05 -0.021,0.09 0.05,0.1 0.27,0.05 0.53,0.1 0.79,0.16 27.809,6.12 55.97,11.78 84.49,16.99 45.58,8.32 92.24,14.74 139.97,19.25 5.219,0.49 10.41,0.66 15.69,1.12 38.67,3.31 77.21,3.81 115.619,1.52 23.12,-1.39 46.461,-4.65 68.571,-9.81 C 1.649,187.45 33.29,175.57 52.89,153.35 70.81,133.06 73.87,107.69 64.689,82.32 56.09,58.53 39.54,37.27 21.189,19.31 14.319,12.58 7.36,6.34 0.31,0.58 0.13,0.43 0.02,0.22 0,0" /></g><g
           transform="translate(170.6621,312.6499)"
           id="g24"><path
             id="path26"
             style="fill:#ffffff;fill-opacity:1;fill-rule:nonzero;stroke:none"
             d="m 0,0 c -1.92,15.53 -15.6,17.85 -28.44,16.69 -8.69,-0.79 -16.65,-5.34 -20.39,-13.21 -4.3,-9.04 4.08,-14.04 11.3,-15.9 15.81,-4.06 31.71,-7.56 47.16,-13.07 11.99,-4.27 23.83,-10.38 31.16,-20.65 6.28,-8.79 7.98,-20.88 6.19,-31.72 -5.31,-32.22 -30.55,-57.849 -60.45,-68.93 -9.26,-3.43 -19.15,-5.7 -29.66,-6.8 -17.73,-1.85 -35.09,-1.35 -52.09,1.5 -13.33,2.24 -27.6,7.52 -35.21,19.01 -9.55,14.42 -11.06,31.54 -7.86,48.52 0.07,0.391 0.31,0.601 0.71,0.63 l 59.55,3.65 c 0.46,0.03 0.65,-0.19 0.58,-0.639 -0.87,-5.54 -0.85,-10.711 0.04,-15.5 3.06,-16.391 19.56,-19.771 33.49,-17.651 7.19,1.09 13.34,3.96 18.45,8.6 5.39,4.9 9.57,12.34 7.62,19.551 -1.61,5.96 -6.3,9.249 -11.79,11.489 -5.66,2.32 -11.4,4.14 -17.23,5.46 -17.15,3.9 -33.75,8.97 -47.06,18.16 -9.83,6.79 -15.48,15.55 -16.97,26.28 -1.58,11.37 1.63,23.86 7.19,34 14.32,26.12 41.36,40.27 70.48,43.9 16.47,2.05 32.39,2.12 47.77,0.21 C 26.41,52.11 39.63,48.21 48.48,40.25 55.74,33.72 59.86,24.84 60.83,13.61 61.4,6.92 61.17,0.67 60.14,-5.14 60.08,-5.49 59.88,-5.67 59.53,-5.69 L 0.5,-9.08 C 0.08,-9.11 -0.1,-8.91 -0.03,-8.49 0.36,-5.86 0.37,-3.03 0,0" /></g><g
           transform="translate(264.2622,167.9199)"
           id="g28"><path
             id="path30"
             style="fill:#ffffff;fill-opacity:1;fill-rule:nonzero;stroke:none"
             d="m 0,0 c -18.46,9.44 -29.36,28.01 -31.77,48.2 -1.12,9.41 -0.77,19.52 1.06,30.33 4.74,28.07 16.26,56.74 35.55,78.13 24.15,26.79 55.14,41.07 92.97,42.82 19.52,0.91 40.44,-0.99 57.69,-9.64 29.9,-14.98 36.73,-46.55 31.43,-77.16 -3.94,-22.7 -12,-46.47 -24.66,-65.6 C 145.61,21.9 120.59,3.021 91.29,-4.99 71.09,-10.5 48.83,-11.2 28.02,-8.32 17.3,-6.84 7.96,-4.07 0,0 m 112.71,73.77 c 5.39,12.39 9.11,25.31 11.15,38.78 2.77,18.33 -2.39,35.14 -23,38.81 -8.87,1.57 -17.59,0.63 -26.18,-2.83 C 56.8,141.32 46.56,126.01 40.03,108.25 35.6,96.21 32.15,82.7 31.44,69.84 30.48,52.49 38.97,39.07 57.3,37.4 c 13.8,-1.25 26.02,2.161 36.65,10.23 8.61,6.54 14.44,16.19 18.76,26.14" /></g><g
           transform="translate(523.082,243.98)"
           id="g32"><path
             id="path34"
             style="fill:#ffffff;fill-opacity:1;fill-rule:nonzero;stroke:none"
             d="m 0,0 -22.04,-82.21 c -0.04,-0.16 -0.18,-0.27 -0.35,-0.27 h -62.4 c -0.24,0 -0.41,0.22 -0.35,0.45 L -31,120 c 0.04,0.16 0.18,0.27 0.35,0.27 h 154.27 c 0.24,0 0.41,-0.22 0.35,-0.45 L 112.43,76.79 c -0.04,-0.16 -0.18,-0.27 -0.35,-0.27 H 20.79 c -0.17,0 -0.31,-0.11 -0.35,-0.27 L 11.17,41.72 c -0.06,-0.23 0.11,-0.45 0.35,-0.45 h 77.5 c 0.24,0 0.41,-0.22 0.35,-0.45 L 78.58,0.54 C 78.54,0.38 78.4,0.27 78.23,0.27 H 0.35 C 0.18,0.27 0.04,0.16 0,0" /></g><g
           transform="translate(712.7002,314)"
           id="g36"><path
             id="path38"
             style="fill:#ffffff;fill-opacity:1;fill-rule:nonzero;stroke:none"
             d="m 0,0 h -62.681 c -0.279,0 -0.479,0.26 -0.409,0.53 l 13.239,49.41 c 0.051,0.18 0.21,0.31 0.401,0.31 h 189.599 c 0.281,0 0.481,-0.26 0.411,-0.53 L 127.319,0.31 C 127.27,0.13 127.109,0 126.92,0 H 63.729 C 63.54,0 63.38,-0.13 63.33,-0.31 L 22.64,-152.19 c -0.05,-0.18 -0.21,-0.31 -0.4,-0.31 h -62.011 c -0.279,0 -0.479,0.26 -0.41,0.53 L 0.41,-0.53 C 0.479,-0.26 0.28,0 0,0" /></g><g
           transform="translate(888.29,207.5)"
           id="g40"><path
             id="path42"
             style="fill:#ffffff;fill-opacity:1;fill-rule:nonzero;stroke:none"
             d="m 0,0 106.67,-0.01 c 0.33,0 0.559,-0.31 0.47,-0.62 -0.63,-2.06 -1.19,-4.14 -1.69,-6.25 -0.26,-1.07 -0.91,-1.82 -1.94,-2.24 C 71.89,-22.04 39.94,-33.32 7.65,-42.95 5.76,-43.51 3.88,-43.82 2,-43.87 c -26.53,-0.74 -52.37,-1.48 -77.5,-2.21 -0.31,-0.01 -0.54,0.28 -0.46,0.58 l 54.04,201.75 c 0.08,0.29 0.35,0.49 0.649,0.49 H 145.42 c 0.49,0 0.68,-0.24 0.55,-0.71 l -11.36,-42.47 c -0.05,-0.21 -0.19,-0.31 -0.4,-0.31 H 30.03 c -0.25,0 -0.48,-0.17 -0.54,-0.41 L 21.07,81.48 c -0.03,-0.12 0.05,-0.23 0.17,-0.23 h 96.28 c 0.42,0 0.72,-0.4 0.61,-0.81 L 107.44,40.51 c -0.12,-0.44 -0.52,-0.74 -0.98,-0.74 H 10.47 c -0.34,0 -0.63,-0.23 -0.71,-0.55 L -0.55,0.72 C -0.65,0.36 -0.38,0 0,0" /></g><g
           transform="translate(1115.1895,264.8999)"
           id="g44"><path
             id="path46"
             style="fill:#ffffff;fill-opacity:1;fill-rule:nonzero;stroke:none"
             d="m 0,0 -71.55,98.69 c -0.2,0.27 -0.01,0.66 0.33,0.66 H 0.28 C 1,99.35 1.671,99 2.08,98.42 L 46.95,35.95 c 0.391,-0.53 0.3,-1.28 -0.21,-1.7 C 31.891,21.84 16.601,10.37 0.86,-0.15 0.58,-0.34 0.2,-0.27 0,0" /></g><g
           transform="translate(835.2305,41.4404)"
           id="g48"><path
             id="path50"
             style="fill:#ffffff;fill-opacity:1;fill-rule:nonzero;stroke:none"
             d="m 0,0 c 0.1,-5.881 1.909,-11.99 6.609,-15.74 6.51,-5.181 15.75,-4.561 22.21,0.3 3.991,2.99 6.8,7.19 8.41,12.589 0.041,0.13 0.13,0.191 0.271,0.17 l 8.38,-1.16 C 46.029,-3.86 46.119,-4.011 46.069,-4.15 40.789,-18.57 29.85,-27.921 13.689,-26.591 7.439,-26.08 2.35,-23.86 -1.58,-19.94 -8.2,-13.33 -9.24,-3.921 -8.66,5.3 -7.391,25.659 8.05,42.88 29.659,39.89 40.319,38.409 47.819,31.029 49.05,20.27 49.09,19.859 48.909,19.64 48.51,19.6 L 41.279,18.97 C 40.97,18.939 40.699,19.149 40.64,19.449 38.779,28.649 33.329,33.1 24.289,32.81 7.81,32.27 -0.25,14.6 0,0" /></g><g
           transform="translate(988.0898,35.4004)"
           id="g52"><path
             id="path54"
             style="fill:#ffffff;fill-opacity:1;fill-rule:nonzero;stroke:none"
             d="m 0,0 c -6.76,-14.32 -20.229,-22.721 -35.95,-20.271 -12.56,1.951 -20.94,12.411 -21.83,24.791 -0.93,12.81 2.631,24.799 12.25,33.48 8.72,7.88 21.841,10.569 32.78,6.3 C 4.84,37.449 7.07,15.01 0,0 M -36.967,-12.226 C -25.99,-16.511 -12.72,-8.771 -7.327,5.048 -1.939,18.869 -6.47,33.54 -17.453,37.825 -28.43,42.109 -41.7,34.369 -47.092,20.552 -52.479,6.729 -47.95,-7.94 -36.967,-12.226" /></g><g
           transform="translate(16.1899,41.2998)"
           id="g56"><path
             id="path58"
             style="fill:#ffffff;fill-opacity:1;fill-rule:nonzero;stroke:none"
             d="m 0,0 -5.28,-25.37 c -0.03,-0.12 -0.11,-0.18 -0.24,-0.18 l -8.53,0.01 c -0.14,0 -0.19,0.07 -0.16,0.2 l 13.43,64.18 c 0.04,0.19 0.21,0.33 0.41,0.341 C 9.17,39.23 19.19,39.22 29.7,39.141 44.67,39.021 48.15,23.811 42.39,12.71 37.38,3.061 27.99,0.92 17.93,0.75 12.2,0.66 6.53,0.65 0.92,0.74 0.41,0.75 0.1,0.5 0,0 m 34.56,16.46 c 2.18,4.04 2.81,10.2 -1.04,13.41 -1.57,1.3 -3.8,1.981 -6.69,2.03 C 20.02,32.021 13.45,32.01 7.12,31.86 6.81,31.851 6.63,31.7 6.56,31.4 L 1.83,8.7 C 1.76,8.4 1.89,8.25 2.2,8.24 7.53,8.141 13.08,8.16 18.85,8.311 25.52,8.48 31.3,10.41 34.56,16.46" /></g><g
           transform="translate(118.1499,53.25)"
           id="g60"><path
             id="path62"
             style="fill:#ffffff;fill-opacity:1;fill-rule:nonzero;stroke:none"
             d="m 0,0 36.02,-0.01 c 0.24,0 0.42,-0.22 0.37,-0.46 l -1.47,-6.98 c -0.03,-0.17 -0.19,-0.3 -0.37,-0.3 H -1.77 c -0.18,0 -0.34,-0.13 -0.37,-0.3 L -6.61,-29.54 C -6.66,-29.78 -6.48,-30 -6.24,-30 h 39.69 c 0.24,0 0.42,-0.22 0.37,-0.46 l -1.45,-6.74 c -0.03,-0.17 -0.19,-0.3 -0.37,-0.3 h -48.75 c -0.24,0 -0.42,0.22 -0.37,0.46 l 13.4,63.99 c 0.03,0.17 0.19,0.3 0.37,0.3 h 46.09 c 0.24,0 0.42,-0.22 0.37,-0.46 l -1.44,-6.74 c -0.03,-0.17 -0.19,-0.3 -0.37,-0.3 H 4 c -0.18,0 -0.34,-0.13 -0.37,-0.3 l -4,-18.99 C -0.42,0.22 -0.24,0 0,0" /></g><g
           transform="translate(214.75,43.9697)"
           id="g64"><path
             id="path66"
             style="fill:#ffffff;fill-opacity:1;fill-rule:nonzero;stroke:none"
             d="m 0,0 -5.83,-27.92 c -0.04,-0.21 -0.17,-0.309 -0.38,-0.309 l -8.4,0.019 c -0.14,0 -0.19,0.07 -0.16,0.21 l 13.43,64.181 c 0.04,0.199 0.22,0.34 0.42,0.34 10.75,0.009 21.23,0.009 31.42,0 0.99,0 2.91,-0.26 5.74,-0.781 C 44.47,34.221 47.45,27.101 47.01,19.33 46.34,7.65 37.16,2.59 26.5,0.99 25.89,0.9 25.82,0.65 26.29,0.25 c 1.04,-0.899 2.32,-1.729 3.16,-2.81 6.01,-7.77 8.98,-16.4 12.61,-25.429 0.04,-0.101 -0.04,-0.211 -0.15,-0.211 l -9.41,-0.029 c -0.25,0 -0.41,0.109 -0.5,0.339 -3.18,8.58 -6.01,17.43 -11.39,24.6 C 19.04,-1.2 16.69,0.07 14.08,0.261 9.79,0.58 5.29,0.65 0.58,0.48 0.26,0.471 0.07,0.311 0,0 m 37.76,16.681 c 2.35,5.939 -0.37,12.399 -7.42,12.5 -8.23,0.13 -16.13,0.149 -23.7,0.08 C 6.3,29.25 6.09,29.08 6.02,28.75 L 1.77,8.45 C 1.68,8.011 1.86,7.79 2.31,7.79 9.02,7.761 15.58,7.771 21.99,7.82 c 6.5,0.06 13.2,2.37 15.77,8.861" /></g><g
           transform="translate(323.2598,68.8496)"
           id="g68"><path
             id="path70"
             style="fill:#ffffff;fill-opacity:1;fill-rule:nonzero;stroke:none"
             d="m 0,0 c -3.27,-17.689 -6.86,-35.319 -10.77,-52.869 -0.03,-0.131 -0.11,-0.2 -0.25,-0.2 -4.35,-0.111 -7.11,-0.071 -8.3,0.12 -0.07,0.01 -0.09,0.05 -0.08,0.109 l 13.39,63.931 c 0.08,0.369 0.31,0.559 0.69,0.559 h 7.39 c 0.42,0 0.72,-0.19 0.89,-0.57 7.78,-16.92 13.54,-29.949 17.27,-39.09 1.65,-4.03 3.18,-8.41 4.6,-13.12 0.25,-0.849 0.45,-0.84 0.58,0.04 0.77,5.231 1.73,10.561 2.88,15.99 2.56,12.151 5.1,24.31 7.63,36.481 0.04,0.17 0.15,0.26 0.32,0.26 l 8.19,0.009 c 0.17,0 0.24,-0.089 0.2,-0.259 L 31.31,-52.51 c -0.08,-0.389 -0.32,-0.59 -0.72,-0.59 h -7.43 c -0.5,0 -0.85,0.231 -1.04,0.691 -5.49,12.8 -11.1,25.849 -16.81,39.139 C 3.35,-8.699 1.68,-4.279 0.29,0.011 0.24,0.16 0.03,0.15 0,0" /></g><g
           transform="translate(447.0498,34.25)"
           id="g72"><path
             id="path74"
             style="fill:#ffffff;fill-opacity:1;fill-rule:nonzero;stroke:none"
             d="m 0,0 h -25.52 c -0.11,0 -0.21,-0.06 -0.27,-0.15 l -10.1,-18.2 c -0.06,-0.1 -0.16,-0.16 -0.27,-0.16 l -9.17,0.04 c -0.23,0 -0.37,0.25 -0.26,0.45 L -9.24,46.1 c 0.06,0.09 0.16,0.15 0.26,0.15 H 1.05 c 0.14,0 0.27,-0.11 0.29,-0.25 l 10.59,-64.15 c 0.03,-0.18 -0.11,-0.35 -0.29,-0.35 H 3.56 c -0.14,0 -0.27,0.11 -0.29,0.25 l -2.98,18 C 0.27,-0.11 0.14,0 0,0 M -6.47,35.59 C -9.83,28.35 -14.87,19.03 -21.6,7.63 -21.84,7.21 -21.72,7 -21.24,7 h 19.69 c 0.38,0 0.66,0.34 0.6,0.71 -1.82,10.55 -3.21,20.28 -4.18,29.21 -0.13,1.23 -0.39,1.25 -0.78,0.08 -0.16,-0.47 -0.35,-0.94 -0.56,-1.41" /></g><g
           transform="translate(525.02,66.9102)"
           id="g76"><path
             id="path78"
             style="fill:#ffffff;fill-opacity:1;fill-rule:nonzero;stroke:none"
             d="m 0,0 c -3.04,-15.95 -6.52,-32.92 -10.43,-50.91 -0.04,-0.17 -0.15,-0.26 -0.32,-0.26 l -8.14,0.02 c -0.15,0 -0.22,0.08 -0.19,0.23 l 13.35,63.97 c 0.07,0.36 0.3,0.54 0.67,0.54 h 9.83 c 0.33,0 0.51,-0.16 0.56,-0.481 2.35,-14.849 4.6,-29.369 6.74,-43.539 0.61,-4.02 1.01,-7.95 1.22,-11.8 0.04,-0.73 0.22,-0.76 0.53,-0.1 2.01,4.28 4.11,8.38 6.3,12.309 7.83,14.041 15.98,28.441 24.43,43.201 0.15,0.27 0.39,0.41 0.7,0.41 h 10.03 c 0.29,0 0.51,-0.27 0.45,-0.56 L 42.38,-50.92 c -0.03,-0.15 -0.13,-0.23 -0.28,-0.23 l -8.34,-0.01 c -0.13,0 -0.19,0.059 -0.16,0.19 2.22,10.69 4.7,22.22 7.44,34.57 1.25,5.65 2.79,11.28 4.6,16.89 0.03,0.09 0,0.15 -0.09,0.18 L 45.54,0.68 C 45.46,0.71 45.4,0.68 45.37,0.609 44.26,-1.67 43.15,-3.8 42.05,-5.78 33.42,-21.34 24.93,-36.3 16.56,-50.67 c -0.19,-0.32 -0.47,-0.48 -0.84,-0.49 H 8.44 c -0.41,0 -0.65,0.2 -0.71,0.61 C 5.42,-35.9 3.29,-22.09 1.36,-9.141 0.91,-6.11 0.51,-3.07 0.16,-0.01 0.12,0.359 0.07,0.359 0,0" /></g><g
           transform="translate(664.3701,49.21)"
           id="g80"><path
             id="path82"
             style="fill:#ffffff;fill-opacity:1;fill-rule:nonzero;stroke:none"
             d="m 0,0 c 11.05,-4.39 11.32,-16.229 5.02,-24.67 -5.14,-6.88 -12.51,-8.97 -20.98,-8.86 -9.96,0.13 -19.37,0.14 -28.24,0.02 -0.43,-0.01 -0.6,0.2 -0.51,0.63 l 13.33,63.63 c 0.07,0.34 0.27,0.51 0.62,0.51 8.81,0.09 17.18,0.07 25.13,-0.08 0.859,-0.01 1.74,-0.11 2.64,-0.28 C 6.399,29.16 10.899,23.78 10.51,14.771 10.31,10.06 8.3,6.21 4.479,3.22 3.12,2.15 1.5,1.5 -0.03,0.7 -0.53,0.44 -0.521,0.21 0,0 m 1.35,10.83 c 1.629,3.74 1.18,8.99 -2.61,11.34 -1.45,0.91 -3.2,1.4 -5.24,1.47 -5.561,0.19 -11.16,0.23 -16.79,0.1 -0.43,-0.01 -0.68,-0.219 -0.771,-0.63 L -27.97,4.41 c -0.091,-0.389 0.07,-0.59 0.47,-0.6 5.04,-0.09 10.14,-0.06 15.3,0.09 5.26,0.16 11.3,1.75 13.55,6.93 M -13.33,-25.6 c 7.75,0.53 14.86,6.49 13.17,14.95 -0.901,4.51 -4.89,6.41 -9.14,6.66 -6.11,0.35 -12.7,0.42 -19.77,0.21 -0.41,-0.01 -0.66,-0.21 -0.75,-0.62 l -4.35,-20.84 c -0.09,-0.44 0.09,-0.66 0.54,-0.67 7.54,-0.2 14.31,-0.1 20.3,0.31" /></g><g
           transform="translate(762.2998,31.7002)"
           id="g84"><path
             id="path86"
             style="fill:#ffffff;fill-opacity:1;fill-rule:nonzero;stroke:none"
             d="M 0,0 C 1.32,2.33 2.521,6.02 3.59,11.069 6.23,23.5 8.87,36.02 11.521,48.62 11.54,48.74 11.61,48.8 11.73,48.8 l 8.47,-0.01 c 0.12,0 0.21,-0.11 0.18,-0.23 C 17.38,33.72 14.4,19.55 11.44,6.05 10.99,3.99 10.181,1.64 9.021,-1.01 5.19,-9.771 -1.77,-15.51 -11.47,-16.73 c -11.91,-1.5 -25.54,2.51 -27.389,15.81 -0.401,2.87 -0.131,6.52 0.809,10.95 2.85,13.53 5.53,26.38 8.06,38.57 0.03,0.129 0.11,0.2 0.25,0.2 l 8.46,-0.01 c 0.131,0 0.24,-0.12 0.211,-0.25 C -23.78,35.53 -26.51,22.45 -29.25,9.3 -30.069,5.319 -31.229,0.729 -29.14,-3 c 1.84,-3.29 4.69,-5.311 8.55,-6.061 C -11.31,-10.88 -4.45,-7.86 0,0" /></g></g></g></g></svg>